<svg xmlns="http://www.w3.org/2000/svg" viewBox="0 0 398 400"><defs><style>.a{fill:none;stroke:#000;stroke-miterlimit:10;stroke-width:10px;}</style></defs><title>red</title><path class="a" d="M584,167.7H746.7q66.5,0,94.6,40.8,16.5,24.1,16.5,55.7,0,36.8-20.2,60.4-10.5,12.5-30.2,22.8,28.9,11.4,43.3,25.7Q876,398.5,876,443.3q0,37.6-22.9,68.1Q818.8,557,744,557H584Z" transform="translate(-483 -162)"/><path d="M483,162H650.1q68.3,0,97.2,41.9,16.9,24.8,17,57.2,0,37.9-20.8,62.1-10.8,12.8-31.1,23.4,29.7,11.7,44.5,26.4Q783,399.2,783,445.2q0,38.7-23.6,70Q724.2,562,647.4,562H483Z" transform="translate(-483 -162)"/></svg>